<?xml version="1.0" standalone="no"?>
<!DOCTYPE svg PUBLIC "-//W3C//DTD SVG 20010904//EN"
 "http://www.w3.org/TR/2001/REC-SVG-20010904/DTD/svg10.dtd">
<svg version="1.0" xmlns="http://www.w3.org/2000/svg"
 width="160.000000pt" height="160.000000pt" viewBox="0 0 160.000000 160.000000"
 preserveAspectRatio="xMidYMid meet">

<g transform="translate(0.000000,160.000000) scale(0.100000,-0.100000)"
fill="#000000" stroke="none">
<path d="M512 1538 c-17 -17 -17 -259 0 -276 9 -9 96 -12 330 -12 175 0 318
-2 318 -4 0 -8 -53 -131 -61 -139 -3 -5 -31 7 -60 27 -151 99 -352 113 -519
34 -88 -42 -196 -150 -237 -238 -35 -73 -53 -149 -53 -217 0 -45 -3 -50 -91
-140 -111 -113 -110 -123 12 -123 l79 0 0 -42 c0 -70 19 -117 63 -162 57 -56
97 -66 266 -66 l141 0 0 -53 c0 -29 5 -58 12 -65 17 -17 359 -17 376 0 8 8 12
52 12 131 l0 119 45 50 c87 97 131 228 122 368 -6 100 -31 177 -84 257 -21 32
-38 61 -38 64 0 4 52 50 115 103 l115 96 75 0 c46 0 81 5 88 12 17 17 17 259
0 276 -17 17 -1009 17 -1026 0z m988 -138 l0 -100 -67 0 -68 0 -95 -80 c-52
-43 -96 -76 -98 -71 -1 4 9 34 23 66 14 32 24 64 21 71 -4 11 -67 14 -336 14
l-330 0 0 100 0 100 475 0 475 0 0 -100z m-664 -231 c341 -62 505 -470 300
-747 -24 -31 -53 -66 -64 -76 -20 -17 -22 -29 -22 -133 l0 -113 -150 0 -149 0
-3 58 -3 57 -175 5 c-160 5 -178 7 -212 28 -56 35 -79 81 -87 170 l-6 77 -63
5 -63 5 66 65 c61 61 65 67 65 110 0 271 207 491 471 499 19 0 62 -4 95 -10z"/>
<path d="M630 1400 c0 -63 2 -70 20 -70 15 0 20 7 20 25 0 23 4 25 40 25 36 0
40 -2 40 -25 0 -20 5 -25 25 -25 24 0 25 2 25 70 0 68 -1 70 -25 70 -20 0 -25
-5 -25 -25 0 -22 -4 -25 -40 -25 -36 0 -40 3 -40 25 0 18 -5 25 -20 25 -18 0
-20 -7 -20 -70z"/>
<path d="M850 1450 c0 -15 7 -20 25 -20 23 0 25 -3 25 -50 0 -47 2 -50 25 -50
23 0 25 3 25 50 0 47 2 50 25 50 18 0 25 5 25 20 0 18 -7 20 -75 20 -68 0 -75
-2 -75 -20z"/>
<path d="M1050 1400 c0 -68 1 -70 25 -70 21 0 25 5 25 28 0 22 4 27 25 27 21
0 25 -5 25 -27 0 -23 4 -28 25 -28 24 0 25 2 25 70 0 66 -1 70 -23 70 -12 0
-28 -10 -36 -22 l-14 -22 -17 22 c-10 12 -28 22 -39 22 -19 0 -21 -6 -21 -70z"/>
<path d="M1250 1400 l0 -70 75 0 c68 0 75 2 75 20 0 17 -7 20 -50 20 l-50 0 0
50 c0 47 -2 50 -25 50 -24 0 -25 -2 -25 -70z"/>
<path d="M435 988 c-3 -8 -4 -141 -3 -298 l3 -285 290 0 290 0 0 295 0 295
-288 3 c-226 2 -289 0 -292 -10z m545 -88 l0 -50 -255 0 -255 0 0 50 0 50 255
0 255 0 0 -50z m0 -275 l0 -175 -255 0 -255 0 0 175 0 175 255 0 255 0 0 -175z"/>
<path d="M500 900 c0 -15 7 -20 25 -20 18 0 25 5 25 20 0 15 -7 20 -25 20 -18
0 -25 -5 -25 -20z"/>
<path d="M580 900 c0 -13 7 -20 20 -20 13 0 20 7 20 20 0 13 -7 20 -20 20 -13
0 -20 -7 -20 -20z"/>
<path d="M650 900 c0 -15 7 -20 25 -20 18 0 25 5 25 20 0 15 -7 20 -25 20 -18
0 -25 -5 -25 -20z"/>
</g>
</svg>
